<?xml version="1.0" encoding="UTF-8"?>
<svg xmlns="http://www.w3.org/2000/svg" xmlns:xlink="http://www.w3.org/1999/xlink" width="16px" height="16px" viewBox="0 0 16 16" version="1.1">
<g id="surface1">
<path style=" stroke:none;fill-rule:nonzero;fill:rgb(4.313726%,9.019608%,9.803922%);fill-opacity:1;" d="M 12 7.5 L 12 8.5 L 8.5 8.5 L 8.5 12 L 7.5 12 L 7.5 8.5 L 4 8.5 L 4 7.5 L 7.5 7.5 L 7.5 4 L 8.5 4 L 8.5 7.5 Z M 12.242188 12.242188 C 9.898438 14.585938 6.101562 14.585938 3.757812 12.242188 C 1.414062 9.898438 1.414062 6.101562 3.757812 3.757812 C 6.101562 1.414062 9.898438 1.414062 12.242188 3.757812 C 14.585938 6.101562 14.585938 9.898438 12.242188 12.242188 Z M 11.535156 4.464844 C 9.617188 2.542969 6.453125 2.476562 4.464844 4.464844 C 2.515625 6.414062 2.515625 9.585938 4.464844 11.535156 C 6.453125 13.523438 9.617188 13.453125 11.535156 11.535156 C 13.484375 9.585938 13.484375 6.414062 11.535156 4.464844 Z M 11.535156 4.464844 "/>
</g>
</svg>
