<?xml version="1.0" encoding="UTF-8"?>
<svg xmlns="http://www.w3.org/2000/svg" xmlns:xlink="http://www.w3.org/1999/xlink" width="16px" height="16px" viewBox="0 0 16 16" version="1.1">
<g id="surface1">
<path style=" stroke:none;fill-rule:nonzero;fill:rgb(0%,0%,0%);fill-opacity:1;" d="M 7.050781 1.535156 C 8.035156 0.550781 9.367188 0 10.757812 0 C 13.652344 0 16 2.347656 16 5.242188 C 16 6.632812 15.449219 7.964844 14.464844 8.949219 L 12.414062 11 L 11 9.585938 L 13.050781 7.535156 C 13.660156 6.925781 14 6.101562 14 5.242188 C 14 3.453125 12.546875 2 10.757812 2 C 9.898438 2 9.074219 2.339844 8.464844 2.949219 L 6.414062 5 L 5 3.585938 Z M 7.050781 1.535156 "/>
<path style=" stroke:none;fill-rule:nonzero;fill:rgb(0%,0%,0%);fill-opacity:1;" d="M 7.535156 13.050781 L 9.585938 11 L 11 12.414062 L 8.949219 14.464844 C 7.964844 15.449219 6.632812 16 5.242188 16 C 2.347656 16 0 13.652344 0 10.757812 C 0 9.367188 0.550781 8.035156 1.535156 7.050781 L 3.585938 5 L 5 6.414062 L 2.949219 8.464844 C 2.339844 9.074219 2 9.898438 2 10.757812 C 2 12.546875 3.453125 14 5.242188 14 C 6.101562 14 6.925781 13.660156 7.535156 13.050781 Z M 7.535156 13.050781 "/>
<path style=" stroke:none;fill-rule:nonzero;fill:rgb(0%,0%,0%);fill-opacity:1;" d="M 5.707031 11.707031 L 11.707031 5.707031 L 10.292969 4.292969 L 4.292969 10.292969 Z M 5.707031 11.707031 "/>
</g>
</svg>
